<svg xmlns="http://www.w3.org/2000/svg" viewBox="0 0 512 512">
  <defs>
    <linearGradient id="bgGrad" x1="0%" y1="0%" x2="100%" y2="100%">
      <stop offset="0%" stop-color="#2563eb"/>
      <stop offset="100%" stop-color="#1d4ed8"/>
    </linearGradient>
    <linearGradient id="goldGrad" x1="0%" y1="0%" x2="100%" y2="100%">
      <stop offset="0%" stop-color="#fbbf24"/>
      <stop offset="100%" stop-color="#f59e0b"/>
    </linearGradient>
  </defs>
  <rect width="512" height="512" rx="96" fill="url(#bgGrad)"/>
  <rect x="80" y="120" width="352" height="280" rx="24" fill="#1e40af"/>
  <rect x="100" y="140" width="312" height="240" rx="16" fill="white"/>
  <rect x="120" y="170" width="120" height="24" rx="4" fill="#22c55e"/>
  <rect x="120" y="210" width="180" height="24" rx="4" fill="#ef4444"/>
  <rect x="120" y="250" width="80" height="24" rx="4" fill="#22c55e"/>
  <rect x="120" y="290" width="140" height="24" rx="4" fill="#ef4444"/>
  <rect x="120" y="330" width="100" height="24" rx="4" fill="#22c55e"/>
  <circle cx="360" cy="260" r="60" fill="url(#goldGrad)"/>
  <text x="360" y="280" text-anchor="middle" font-size="60" font-weight="bold" fill="#ffffff">₺</text>
  <circle cx="420" cy="100" r="35" fill="#22c55e"/>
  <path d="M410 100 h20 M420 90 v20" stroke="white" stroke-width="5" stroke-linecap="round"/>
</svg>